<svg width="14" height="15" viewBox="0 0 14 15" fill="none" xmlns="http://www.w3.org/2000/svg">
<path d="M3.58387 4.52438V3.87771C3.58387 2.37771 4.79054 0.904375 6.29054 0.764375C6.70732 0.723427 7.12806 0.770194 7.52568 0.901667C7.92329 1.03314 8.28898 1.24641 8.5992 1.52774C8.90942 1.80907 9.1573 2.15224 9.32689 2.53516C9.49648 2.91807 9.58401 3.33225 9.58387 3.75104V4.67104M1.12387 10.451L1.2772 11.6977C1.42387 13.0044 1.90387 14.0777 4.58387 14.0777H8.58387C11.2639 14.0777 11.7439 13.0044 11.8839 11.6977L12.3839 7.69771C12.5639 6.07104 12.0972 4.74438 9.25054 4.74438H3.9172C1.07054 4.74438 0.603869 6.07104 0.783869 7.69771" stroke="white" stroke-width="1.5" stroke-miterlimit="10" stroke-linecap="round" stroke-linejoin="round"/>
</svg>
