<svg width="18" height="16" viewBox="0 0 18 16" fill="none" xmlns="http://www.w3.org/2000/svg">
<path fill-rule="evenodd" clip-rule="evenodd" d="M7.84368 1.04828C8.3239 1.29149 8.71483 1.57614 9.00002 1.81547C9.28519 1.57614 9.67611 1.29149 10.1563 1.04829C11.2445 0.497149 12.8107 0.156279 14.572 1.04828C15.6971 1.61807 16.4581 2.48024 16.8726 3.52701C17.2815 4.55971 17.337 5.72884 17.1402 6.91501C16.8049 8.93596 15.4236 10.7393 14.0049 12.1287C12.5686 13.5355 10.9937 14.6144 10.1054 15.177C9.42559 15.6076 8.57447 15.6076 7.89461 15.177C7.00638 14.6144 5.43144 13.5356 3.99506 12.1288C2.57639 10.7393 1.19506 8.93597 0.859739 6.91501C0.662926 5.72884 0.718479 4.55971 1.12735 3.52701C1.54179 2.48024 2.30286 1.61807 3.42795 1.04828C5.18925 0.156278 6.75546 0.497152 7.84368 1.04828ZM8.42862 3.33902C8.5711 3.50661 8.78 3.60323 9.00004 3.60323C9.21969 3.60323 9.42824 3.50694 9.5707 3.33988C9.57086 3.33969 9.57103 3.3395 9.57119 3.33931C9.57139 3.33908 9.57158 3.33886 9.57177 3.33863L9.58315 3.32585C9.59482 3.3129 9.61442 3.29157 9.6416 3.26345C9.69606 3.20708 9.78018 3.1242 9.89099 3.02726C10.1143 2.83193 10.4365 2.58778 10.834 2.38645C11.6148 1.99103 12.6652 1.76397 13.8943 2.38645C14.6968 2.79287 15.2002 3.37777 15.4779 4.0792C15.7612 4.7947 15.8255 5.67491 15.6604 6.66949C15.4044 8.21282 14.3038 9.7364 12.9554 11.0571C11.6246 12.3605 10.1471 13.375 9.30285 13.9098C9.11304 14.03 8.887 14.03 8.6972 13.9098C7.8529 13.375 6.37541 12.3605 5.04462 11.0571C3.69613 9.7364 2.59558 8.21282 2.33951 6.66949C2.17448 5.67491 2.23873 4.7947 2.52202 4.0792C2.79973 3.37777 3.30317 2.79287 4.10566 2.38645C5.33479 1.76397 6.38519 1.99103 7.16597 2.38645C7.5635 2.58778 7.88576 2.83194 8.10906 3.02727C8.21987 3.12421 8.304 3.20709 8.35847 3.26346C8.38564 3.29158 8.40525 3.31292 8.41692 3.32587L8.42862 3.33902Z" fill="#78756E"/>
</svg>
