<svg width="19" height="18" viewBox="0 0 19 18" fill="none" xmlns="http://www.w3.org/2000/svg">
<path fill-rule="evenodd" clip-rule="evenodd" d="M11.3996 1.41458C10.2736 0.570139 8.72549 0.570139 7.59956 1.41458L2.15878 5.49517C1.2869 6.14908 0.812547 7.20539 0.903054 8.29148L1.40415 14.3046C1.54092 15.9459 2.91293 17.2083 4.55988 17.2083H14.4392C16.0862 17.2083 17.4582 15.9459 17.595 14.3046L18.0961 8.29148C18.1866 7.20539 17.7122 6.14908 16.8403 5.49517L11.3996 1.41458ZM8.54956 2.68125C9.11253 2.25903 9.8866 2.25903 10.4496 2.68125L15.8903 6.76184C16.3263 7.08879 16.5635 7.61695 16.5182 8.15999L16.0171 14.1732C15.9487 14.9938 15.2627 15.625 14.4392 15.625H11.9433L12.1033 13.7047C12.2302 12.1814 11.0281 10.875 9.49956 10.875C7.97099 10.875 6.76888 12.1814 6.89583 13.7047L7.05585 15.625H4.55988C3.73641 15.625 3.0504 14.9938 2.98201 14.1732L2.48092 8.15999C2.43566 7.61695 2.67284 7.08879 3.10878 6.76184L8.54956 2.68125ZM10.5254 13.5733L10.3545 15.625H8.64467L8.47369 13.5733C8.42367 12.9731 8.89731 12.4583 9.49956 12.4583C10.1018 12.4583 10.5755 12.9731 10.5254 13.5733Z" fill="#78756E"/>
</svg>
