<svg width="16" height="17" viewBox="0 0 16 17" fill="none" xmlns="http://www.w3.org/2000/svg">
<path fill-rule="evenodd" clip-rule="evenodd" d="M0.875 0.75C0.460786 0.75 0.125 1.08579 0.125 1.5C0.125 1.91421 0.460786 2.25 0.875 2.25C1.42132 2.25 1.8986 2.64696 1.99686 3.2055L2.51127 6.12952L2.51173 6.1321L2.84132 7.97406C3.04745 9.12611 3.21206 10.0461 3.42017 10.7769C3.63479 11.5306 3.91295 12.1507 4.38539 12.6747C4.70987 13.0347 5.08953 13.3428 5.51028 13.5887C6.1198 13.9449 6.79172 14.1018 7.5906 14.1769C8.36888 14.25 9.33353 14.25 10.5487 14.25H10.9181C11.4586 14.25 11.9042 14.25 12.2713 14.2233C12.6537 14.1955 13.0017 14.1362 13.3394 13.9922C13.8319 13.7823 14.2632 13.4522 14.5898 13.0311C14.8154 12.7403 14.9562 12.4198 15.0717 12.0617C15.1818 11.72 15.2823 11.2987 15.4031 10.7927L15.4183 10.7288C15.6018 9.95961 15.7518 9.33114 15.8244 8.81795C15.8991 8.2899 15.9073 7.79325 15.7372 7.31453C15.4982 6.64156 15.0278 6.07499 14.4122 5.70589C13.9785 5.44588 13.4882 5.34414 12.9441 5.2965C12.413 5.24998 11.7474 5.24999 10.9261 5.25H3.87957L3.47417 2.94561C3.25171 1.68108 2.16075 0.75 0.875 0.75ZM10.891 6.75C11.7557 6.75 12.3553 6.75068 12.8133 6.79078C13.2659 6.83042 13.4922 6.90324 13.6408 6.99236C13.9652 7.18686 14.2041 7.47969 14.3237 7.81658C14.3759 7.96345 14.3997 8.17955 14.3392 8.60782C14.2776 9.04294 14.1449 9.6027 13.9506 10.4169C13.8216 10.9577 13.7342 11.3218 13.644 11.6014C13.5572 11.8709 13.4829 12.0109 13.4047 12.1117C13.2373 12.3274 13.013 12.5008 12.7512 12.6124C12.6251 12.6661 12.4595 12.7057 12.1624 12.7273C11.8562 12.7495 11.4653 12.75 10.891 12.75H10.5866C9.32514 12.75 8.4309 12.7492 7.73097 12.6834C7.04358 12.6188 6.6138 12.4963 6.26714 12.2937C5.97826 12.1248 5.71945 11.9143 5.49951 11.6704C5.23837 11.3807 5.04369 11.0012 4.86281 10.3661C4.67779 9.71635 4.52561 8.87085 4.31083 7.67054L4.14611 6.75H10.891Z" fill="#78756E"/>
<path d="M6.875 15.5625C6.875 16.0803 6.45527 16.5 5.9375 16.5C5.41973 16.5 5 16.0803 5 15.5625C5 15.0447 5.41973 14.625 5.9375 14.625C6.45527 14.625 6.875 15.0447 6.875 15.5625Z" fill="#78756E"/>
<path d="M12.6875 16.5C13.2053 16.5 13.625 16.0803 13.625 15.5625C13.625 15.0447 13.2053 14.625 12.6875 14.625C12.1697 14.625 11.75 15.0447 11.75 15.5625C11.75 16.0803 12.1697 16.5 12.6875 16.5Z" fill="#78756E"/>
</svg>
