<svg width="18" height="18" viewBox="0 0 18 18" fill="none" xmlns="http://www.w3.org/2000/svg">
<g clip-path="url(#clip0_563_538)">
<path fill-rule="evenodd" clip-rule="evenodd" d="M9 2.25C6.92893 2.25 5.25 3.92893 5.25 6C5.25 8.07107 6.92893 9.75 9 9.75C11.0711 9.75 12.75 8.07107 12.75 6C12.75 3.92893 11.0711 2.25 9 2.25ZM6.75 6C6.75 4.75736 7.75736 3.75 9 3.75C10.2426 3.75 11.25 4.75736 11.25 6C11.25 7.24264 10.2426 8.25 9 8.25C7.75736 8.25 6.75 7.24264 6.75 6Z" fill="#78756E"/>
<path fill-rule="evenodd" clip-rule="evenodd" d="M18 9C18 13.9706 13.9706 18 9 18L8.98802 18C4.02297 17.9935 0 13.9666 0 9C0 4.02944 4.02944 0 9 0C13.9706 0 18 4.02944 18 9ZM1.5 9C1.5 4.85786 4.85786 1.5 9 1.5C13.1421 1.5 16.5 4.85786 16.5 9C16.5 10.7902 15.8728 12.434 14.8261 13.7234C14.7952 13.6524 14.7601 13.5813 14.7205 13.5102C13.7035 11.6831 11.5888 9.75 8.9977 9.75C6.40663 9.75 4.29192 11.6831 3.27487 13.5102C3.23596 13.5801 3.20143 13.6501 3.17111 13.7199C2.12611 12.431 1.5 10.7886 1.5 9ZM5.60132 15.623C6.62132 16.1675 8.03187 16.4989 8.99279 16.5L8.9977 16.5C9.9618 16.5 11.3802 16.1746 12.4027 15.6332C12.9179 15.3603 13.2483 15.0764 13.4015 14.8307C13.521 14.639 13.5409 14.4752 13.4099 14.2398C12.5409 12.6786 10.8407 11.25 8.9977 11.25C7.1547 11.25 5.45452 12.6786 4.58551 14.2398C4.4613 14.4629 4.47802 14.6219 4.59982 14.8159C4.75473 15.0627 5.08665 15.3482 5.60132 15.623Z" fill="#78756E"/>
</g>
<defs>
<clipPath id="clip0_563_538">
<rect width="18" height="18" fill="white"/>
</clipPath>
</defs>
</svg>
